<svg xmlns="http://www.w3.org/2000/svg" viewBox="0 0 224.06 221.91"><defs><style>.cls-1{fill:#1d1d1b;}.cls-2,.cls-6{fill:none;}.cls-2,.cls-3{stroke:#1d1d1b;}.cls-2,.cls-3,.cls-6{stroke-miterlimit:10;}.cls-3,.cls-4{fill:#fff;}.cls-3{stroke-width:8px;}.cls-4{font-size:25px;font-family:OpenSans-ExtraBold, Open Sans;font-weight:700;}.cls-5{font-size:44px;}.cls-6{stroke:#fff;}</style></defs><title>Fichier 1</title><g id="Calque_2" data-name="Calque 2"><g id="VERSION_NOIRE" data-name="VERSION NOIRE"><path class="cls-1" d="M223.56,111c0,5.2-8.27,9.75-9,14.75s5.91,11.81,4.49,16.68-10.67,7-12.78,11.61,2.34,13-.42,17.26-12.19,3.67-15.54,7.53-1.39,13.1-5.25,16.45-12.71.09-17,2.87-5,12.17-9.67,14.31-12.2-3.5-17.15-2.05-8.2,10.26-13.32,11-10.67-6.82-15.87-6.82-10.87,7.53-15.87,6.82-8.46-9.56-13.32-11-12.52,4.17-17.15,2.05S60.31,200.88,56,198.11s-13.17.48-17-2.87-1.9-12.58-5.25-16.45S21,175.57,18.19,171.26s1.72-12.59-.42-17.26S6.44,147.33,5,142.38s5.22-11.55,4.49-16.68S.5,116.15.5,111s8.27-9.75,9-14.75S3.56,84.39,5,79.53s10.67-7,12.78-11.61-2.34-13,.42-17.26S30.39,47,33.74,43.12,35.12,30,39,26.67s12.71-.09,17-2.87,5-12.17,9.67-14.31,12.2,3.5,17.15,2.05S91,1.28,96.16.55,106.83,7.36,112,7.36,122.9-.17,127.9.55s8.46,9.56,13.32,11,12.52-4.17,17.15-2.05S163.75,21,168,23.79s13.17-.48,17,2.87,1.9,12.58,5.25,16.45,12.76,3.22,15.54,7.53-1.72,12.59.42,17.26,11.33,6.66,12.78,11.61-5.22,11.55-4.49,16.68S223.56,105.76,223.56,111Z"/><path class="cls-2" d="M223.56,111c0,5.2-8.27,9.75-9,14.75s5.91,11.81,4.49,16.68-10.67,7-12.78,11.61,2.34,13-.42,17.26-12.19,3.67-15.54,7.53-1.39,13.1-5.25,16.45-12.71.09-17,2.87-5,12.17-9.67,14.31-12.2-3.5-17.15-2.05-8.2,10.26-13.32,11-10.67-6.82-15.87-6.82-10.87,7.53-15.87,6.82-8.46-9.56-13.32-11-12.52,4.17-17.15,2.05S60.31,200.88,56,198.11s-13.17.48-17-2.87-1.9-12.58-5.25-16.45S21,175.57,18.19,171.26s1.72-12.59-.42-17.26S6.44,147.33,5,142.38s5.22-11.55,4.49-16.68S.5,116.15.5,111s8.27-9.75,9-14.75S3.56,84.39,5,79.53s10.67-7,12.78-11.61-2.34-13,.42-17.26S30.39,47,33.74,43.12,35.12,30,39,26.67s12.71-.09,17-2.87,5-12.17,9.67-14.31,12.2,3.5,17.15,2.05S91,1.28,96.16.55,106.83,7.36,112,7.36,122.9-.17,127.9.55s8.46,9.56,13.32,11,12.52-4.17,17.15-2.05S163.75,21,168,23.79s13.17-.48,17,2.87,1.9,12.58,5.25,16.45,12.76,3.22,15.54,7.53-1.72,12.59.42,17.26,11.33,6.66,12.78,11.61-5.22,11.55-4.49,16.68S223.56,105.76,223.56,111Z"/><circle id="Contour_blanc" data-name="Contour blanc" class="cls-3" cx="112.03" cy="110.95" r="96.64"/><circle id="Rond_milieu" data-name="Rond milieu" class="cls-1" cx="112.03" cy="110.95" r="89.3"/><text class="cls-4" transform="translate(41.57 87.98)">BORDEAUX <tspan class="cls-5"><tspan x="12.78" y="66">VÉLO</tspan></tspan></text><line id="Trait_blanc_gauche" data-name="Trait blanc gauche" class="cls-6" x1="34.28" y1="137.6" x2="51.28" y2="137.6"/><line id="Trait_blanc_droit" data-name="Trait blanc droit" class="cls-6" x1="174.35" y1="137.6" x2="191.35" y2="137.6"/></g></g></svg>